<svg width="177" height="24" viewBox="0 0 177 24" fill="none" xmlns="http://www.w3.org/2000/svg">
<g id="logo-brand 1" clip-path="url(#clip0_1_105)">
<g id="Clip path group">
<mask id="mask0_1_105" style="mask-type:luminance" maskUnits="userSpaceOnUse" x="0" y="0" width="177" height="24">
<g id="a">
<path id="Vector" d="M0 0H177V24H0V0Z" fill="white"/>
</g>
</mask>
<g mask="url(#mask0_1_105)">
<g id="Group">
<path id="Vector_2" d="M72.89 20.04V0.0100098H67.07V0.65001C69.19 0.84001 69.87 1.42001 69.87 3.00001V19.97C69.87 21.93 69.26 22.73 67.84 22.73C66.26 22.73 65.59 21.93 65.59 19.97V12.86C65.59 9.16001 63.69 7.27001 59.93 7.27001C56.84 7.27001 54.11 8.52001 54.05 10.81C54.02 11.87 54.56 12.74 55.63 12.74C56.7 12.74 57.17 11.94 57.17 11C57.17 8.94001 57.85 8.07001 59.81 8.07001C61.58 8.07001 62.64 8.87001 62.64 11.99C62.64 13.02 62.29 13.21 59.68 14.18C55.18 15.88 52.96 16.98 52.96 19.87C52.96 22.51 54.79 23.73 57.78 23.73C60.26 23.73 61.86 22.89 62.64 20.97C62.93 22.64 63.77 23.51 65.5 23.51H75.69V22.9C73.5 22.71 72.89 22.06 72.89 20.04ZM62.63 18.34C62.63 20.49 61.25 22.68 58.8 22.68C57.16 22.68 56.2 21.65 56.2 19.72C56.2 17.12 57.49 15.93 60.38 14.83C61.44 14.41 62.15 14.15 62.63 13.9V18.34ZM39.07 9.01001C39.07 9.91001 38.52 10.78 37.62 10.78C36.53 10.78 36.4 9.53001 35.34 9.53001C33.73 9.53001 32.12 13.13 32.12 16.02V20.23C32.12 21.97 32.8 22.58 35.14 22.87V23.51H26.43V22.9C28.42 22.58 29.13 21.84 29.13 20.14V10.72C29.13 9.11001 28.62 8.60001 26.49 8.21001V7.60001H32.05L31.99 12H32.25C33.16 9.42001 34.95 7.27001 37.08 7.27001C38.37 7.27001 39.07 7.98001 39.07 9.01001ZM46.04 7.28001C41.7 7.28001 38.97 10.4 38.97 15.8C38.97 21.2 41.48 23.74 45.82 23.74C48.68 23.74 50.58 22.65 51.61 19.88L50.97 19.56C50.1 21.65 48.56 22.68 46.4 22.68C43.35 22.68 42.48 20.27 42.48 15.19V14.8H51.83V13.29C51.77 9.43001 49.61 7.28001 46.04 7.28001ZM48.64 14H42.49C42.66 9.92001 43.75 8.08001 45.84 8.08001C47.61 8.08001 48.57 9.78001 48.64 13.1V14Z" fill="#D72228"/>
<path id="Vector_3" d="M85.39 22.0401L85.74 22.6201C84.65 23.3001 83.3 23.7101 81.78 23.7101C79.21 23.7101 77.6 22.4901 77.6 19.8801V8.37011H75.22V7.79011C77.66 7.08011 79.53 5.19011 80.08 2.61011H80.69V7.56011H85.67V8.40011H80.69V19.4601C80.69 21.6501 81.37 22.5101 83.33 22.5101C84.13 22.5101 84.81 22.2801 85.39 22.0301V22.0401ZM170.22 20.1701V12.2901C170.22 8.88011 168.48 7.24011 165.43 7.24011C162.74 7.24011 161.36 8.46011 160.74 10.8701H160.56C160.38 8.51011 158.82 7.24011 156.04 7.24011C153.26 7.24011 151.81 8.46011 151.23 10.8701H151.03L151.06 7.59011H145.56V8.20011C147.55 8.49011 148.2 9.04011 148.2 10.6101V20.1301C148.2 21.8301 147.49 22.5701 145.5 22.8901V23.5001H153.38V22.8601C151.77 22.5701 151.19 21.9001 151.19 20.1601V15.9801C151.19 11.0001 152.57 8.39011 155.24 8.39011C156.82 8.39011 157.68 9.35011 157.68 11.5401V20.1601C157.68 21.9001 157.17 22.5701 155.56 22.8601V23.5001H162.86V22.8601C161.25 22.5701 160.71 21.9001 160.71 20.1601V16.0101C160.71 11.0301 162.12 8.39011 164.79 8.39011C166.46 8.39011 167.2 9.45011 167.2 11.5401V20.1901C167.2 21.9301 166.65 22.5701 165.05 22.8601V23.5001H172.51V22.8601C170.77 22.5701 170.23 21.9001 170.23 20.1601L170.22 20.1701ZM145.14 15.5101C145.14 20.4601 142.15 23.7701 137.65 23.7701C133.15 23.7701 130.09 20.4601 130.09 15.5101C130.09 10.5601 133.11 7.28011 137.61 7.28011C142.11 7.28011 145.13 10.5601 145.13 15.5101H145.14ZM141.63 15.5101C141.63 10.4301 140.38 8.15011 137.64 8.15011C134.9 8.15011 133.59 10.4301 133.59 15.5101C133.59 20.5901 134.91 22.9001 137.64 22.9001C140.37 22.9001 141.63 20.6201 141.63 15.5101ZM123.79 22.7101C120.93 22.7101 119.45 20.4301 119.45 15.3801C119.45 10.3301 120.87 8.11011 123.37 8.11011C124.85 8.11011 125.56 8.95011 125.56 10.7101C125.56 12.2901 126.14 13.0901 127.23 13.0901C128.23 13.0901 128.77 12.3501 128.74 11.1601C128.68 8.62011 126.07 7.27011 123.14 7.27011C118.74 7.27011 115.9 10.3601 115.9 15.6301C115.9 20.9001 118.41 23.7601 123.07 23.7601C126.06 23.7601 127.8 22.5101 129.05 19.9001L128.37 19.5501C127.34 21.7001 125.73 22.7001 123.77 22.7001L123.79 22.7101ZM100.03 15.5101C100.03 20.4601 97.04 23.7701 92.54 23.7701C88.04 23.7701 84.95 20.4601 84.95 15.5101C84.95 10.5601 87.97 7.28011 92.51 7.28011C97.05 7.28011 100.03 10.5601 100.03 15.5101ZM96.49 15.5101C96.49 10.4301 95.24 8.15011 92.5 8.15011C89.76 8.15011 88.48 10.4301 88.48 15.5101C88.48 20.5901 89.77 22.9001 92.5 22.9001C95.23 22.9001 96.49 20.6201 96.49 15.5101ZM113.4 9.01011C113.4 7.98011 112.69 7.27011 111.41 7.27011C109.18 7.27011 107.32 9.41011 106.38 12.0001H106.1L106.16 7.60011H100.6V8.21011C102.72 8.60011 103.24 9.11011 103.24 10.7201V20.1401C103.24 21.8401 102.53 22.5801 100.54 22.9001V23.5101H109.25V22.8701C106.9 22.5801 106.23 21.9701 106.23 20.2301V16.0201C106.23 13.1301 107.9 9.53011 109.67 9.53011C110.73 9.53011 110.86 10.7801 111.95 10.7801C112.85 10.7801 113.4 9.91011 113.4 9.01011ZM113.08 20.3301C112.12 20.3301 111.38 21.0701 111.38 22.0301C111.38 22.9901 112.12 23.7301 113.08 23.7301C114.04 23.7301 114.78 22.9901 114.78 22.0301C114.78 21.0701 114.04 20.3301 113.08 20.3301ZM174.22 7.00011C173.556 7.0001 172.919 7.26318 172.449 7.73173C171.978 8.20029 171.713 8.83615 171.71 9.50011C171.71 10.8801 172.84 11.9801 174.22 11.9801C175.6 11.9801 176.69 10.8801 176.69 9.50011C176.69 8.12011 175.59 7.00011 174.22 7.00011ZM174.22 11.5401C173.04 11.5401 172.18 10.6201 172.18 9.50011C172.18 8.38011 173.04 7.43011 174.22 7.43011C175.33 7.43011 176.23 8.37011 176.23 9.50011C176.23 10.6301 175.33 11.5401 174.22 11.5401Z" fill="black"/>
<path id="Vector_4" d="M175.27 9.03996C175.27 8.57996 174.9 8.20996 174.28 8.20996H173.27V10.68H173.78V9.85996H174.23L174.71 10.68H175.27L174.7 9.77996C175.08 9.67996 175.27 9.35996 175.27 9.03996ZM174.26 9.48996H173.78V8.63996H174.26C174.52 8.63996 174.76 8.76996 174.76 9.03996C174.76 9.30996 174.55 9.48996 174.26 9.48996Z" fill="black"/>
<path id="Vector_5" d="M22.94 13.39L11.88 2.04004L0.789978 13.39H4.15998V23.51H19.52V13.39H22.94Z" fill="#D72228"/>
<path id="Vector_6" d="M11.8499 13.4799H12.0499C12.8399 11.5199 14.2399 10.1399 15.4399 10.1399C16.2899 10.1399 16.9599 10.7499 16.9599 11.6899C16.9599 12.5099 16.4899 13.0899 15.8199 13.0899C15.3799 13.0899 15.1799 12.8599 14.9699 12.6499C14.7399 12.4199 14.5599 12.1499 14.2099 12.1499C13.1599 12.1499 11.9599 14.4899 11.9599 16.3299V18.1099C11.9599 19.6899 12.3699 20.0399 14.1499 20.2799V20.8399H7.50995V20.3399C9.11995 20.1399 9.64995 19.6699 9.64995 18.1199V12.7599C9.64995 11.6199 9.14995 11.1799 7.65995 10.9199V10.3999H11.9299L11.8399 13.4699L11.8499 13.4799Z" fill="white"/>
</g>
</g>
</g>
</g>
<defs>
<clipPath id="clip0_1_105">
<rect width="177" height="24" fill="white"/>
</clipPath>
</defs>
</svg>
